HIERARCHY
ROOT root
{
	OFFSET 0.000000 0.000000 0.000000
	CHANNELS 6 Xposition Yposition Zposition Zrotation Yrotation Xrotation
	JOINT lhip
	{
		OFFSET 0.058581 -0.082280 -0.017664
		CHANNELS 3 Zrotation Yrotation Xrotation
		JOINT lknee
		{
			OFFSET 0.043451 -0.386469 0.008037
			CHANNELS 3 Zrotation Yrotation Xrotation
			JOINT lankle
			{
				OFFSET -0.014790 -0.426874 -0.037428
				CHANNELS 3 Zrotation Yrotation Xrotation
				JOINT ltoe
				{
					OFFSET 0.041054 -0.060286 0.122042
					CHANNELS 3 Zrotation Yrotation Xrotation
					End Site
					{
						OFFSET 0.000000 0.000000 0.000000
					}
				}
			}
		}
	}
	JOINT rhip
	{
		OFFSET -0.060310 -0.090513 -0.013543
		CHANNELS 3 Zrotation Yrotation Xrotation
		JOINT rknee
		{
			OFFSET -0.043257 -0.383688 -0.004843
			CHANNELS 3 Zrotation Yrotation Xrotation
			JOINT rankle
			{
				OFFSET 0.019056 -0.420046 -0.034562
				CHANNELS 3 Zrotation Yrotation Xrotation
				JOINT rtoe
				{
					OFFSET -0.034840 -0.062106 0.130323
					CHANNELS 3 Zrotation Yrotation Xrotation
					End Site
					{
						OFFSET 0.000000 0.000000 0.000000
					}
				}
			}
		}
	}
	JOINT lowerback
	{
		OFFSET 0.004439 0.124404 -0.038385
		CHANNELS 3 Zrotation Yrotation Xrotation
		JOINT upperback
		{
			OFFSET 0.004488 0.137956 0.026820
			CHANNELS 3 Zrotation Yrotation Xrotation
			JOINT chest
			{
				OFFSET -0.002265 0.056032 0.002855
				CHANNELS 3 Zrotation Yrotation Xrotation
				JOINT lowerneck
				{
					OFFSET -0.013390 0.211636 -0.033468
					CHANNELS 3 Zrotation Yrotation Xrotation
					JOINT upperneck
					{
						OFFSET 0.010113 0.088937 0.050410
						CHANNELS 3 Zrotation Yrotation Xrotation
						End Site
						{
							OFFSET 0.000000 0.000000 0.000000
						}
					}
				}
				JOINT lclavicle
				{
					OFFSET 0.071702 0.114000 -0.018898
					CHANNELS 3 Zrotation Yrotation Xrotation
					JOINT lshoulder
					{
						OFFSET 0.122921 0.045205 -0.019046
						CHANNELS 3 Zrotation Yrotation Xrotation
						JOINT lelbow
						{
							OFFSET 0.255332 -0.015649 -0.022946
							CHANNELS 3 Zrotation Yrotation Xrotation
							JOINT lwrist
							{
								OFFSET 0.265709 0.012698 -0.007375
								CHANNELS 3 Zrotation Yrotation Xrotation
								End Site
								{
									OFFSET 0.000000 0.000000 0.000000
								}
							}
						}
					}
				}
				JOINT rclavicle
				{
					OFFSET -0.082954 0.112472 -0.023707
					CHANNELS 3 Zrotation Yrotation Xrotation
					JOINT rshoulder
					{
						OFFSET -0.113228 0.046853 -0.008472
						CHANNELS 3 Zrotation Yrotation Xrotation
						JOINT relbow
						{
							OFFSET -0.260127 -0.014369 -0.031269
							CHANNELS 3 Zrotation Yrotation Xrotation
							JOINT rwrist
							{
								OFFSET -0.269108 0.006794 -0.006027
								CHANNELS 3 Zrotation Yrotation Xrotation
								End Site
								{
									OFFSET 0.000000 0.000000 0.000000
								}
							}
						}
					}
				}
			}
		}
	}
}
MOTION
Frames: 16
Frame Time: 0.033333
1.011765 -0.454719 0.998674 -98.303636 0.966782 82.641162 3.588619 -4.916043 -15.273944 -5.471986 0.719530 67.676810 1.723368 11.400060 -7.780188 0.000000 -0.000000 0.000000 8.975170 1.311169 0.284274 2.889920 3.502496 10.565489 -5.573727 -5.186083 -7.885926 0.000000 -0.000000 0.000000 -2.628596 4.135021 10.483061 2.379690 -6.162561 4.973915 0.187614 -2.974653 3.528693 1.537488 -2.042615 -0.560771 7.636771 -1.320343 -6.430861 -23.044346 -5.974027 7.159948 -56.855286 -7.111879 9.581802 12.186114 -32.315793 7.840911 4.742994 -3.836652 -10.305488 20.074430 1.525893 3.184885 61.423795 -4.004921 10.071096 -18.353109 37.700541 2.902248 1.610005 4.977553 -14.012019 
0.992606 -0.449183 0.999077 -101.203811 0.472599 82.271946 3.235877 -6.223636 -17.620874 -4.936017 0.694027 64.956844 2.459534 12.067054 -8.916311 0.000000 -0.000000 0.000000 8.937823 1.340815 2.347198 2.735404 5.427047 10.493782 -4.955119 -4.533578 -8.710802 0.000000 -0.000000 0.000000 -2.784972 5.086386 10.747841 2.073264 -6.042354 4.775500 -0.035355 -2.547687 3.737550 1.718934 -1.803541 -0.318169 7.682706 -1.809230 -5.952804 -23.021624 -5.640207 6.860692 -56.430547 -6.617639 9.775109 11.940370 -32.750087 8.153804 4.769334 -4.200439 -9.836725 20.042558 1.612688 3.314613 61.406015 -3.637996 10.358460 -18.296682 38.323904 2.953150 1.579053 5.135096 -14.019370 
0.974329 -0.444083 0.998710 -104.298271 -0.068557 82.033466 3.037437 -7.389847 -19.526953 -4.231522 0.456494 60.296377 3.067998 12.793111 -9.545909 0.000000 -0.000000 0.000000 8.709052 1.504386 3.900970 2.612439 7.235371 11.035807 -4.597621 -3.949790 -9.820737 0.000000 -0.000000 0.000000 -2.919577 5.974477 10.980919 1.739415 -5.767907 4.692850 -0.182727 -2.061602 3.930557 1.758963 -1.554460 0.008761 7.588124 -2.253577 -5.741776 -23.014309 -5.230899 6.403971 -56.196773 -6.261480 9.909004 12.016711 -33.134259 7.784612 4.640024 -4.228971 -9.718252 19.835212 1.676232 3.256326 61.474856 -3.365882 10.702417 -18.252404 38.942673 3.221769 1.691649 5.297548 -13.919917 
0.954861 -0.438967 0.997621 -107.680647 -0.616025 81.433105 3.257209 -8.932910 -20.130454 -3.355198 1.066396 53.880712 3.329340 13.195240 -10.079741 0.000000 -0.000000 0.000000 8.315687 1.616990 5.901248 2.539620 9.268198 11.645618 -4.474692 -3.146090 -11.360969 0.000000 -0.000000 0.000000 -2.815517 7.046850 11.567816 1.327784 -5.513954 4.507188 -0.407989 -1.598626 4.265377 1.774271 -0.653818 -0.374770 7.590232 -2.990898 -4.925445 -22.807825 -4.893668 5.932584 -56.323009 -5.749749 9.984244 12.305515 -33.315982 7.064328 4.520533 -4.123395 -9.864434 19.762347 1.943815 3.501585 61.442870 -3.010290 10.925244 -18.236210 39.445858 3.039935 1.486482 5.415525 -13.660013 
0.935808 -0.433716 0.995896 -110.312578 -1.006364 81.566451 3.061948 -9.210939 -21.063434 -3.092801 -1.155833 46.379785 3.426990 12.614616 -10.270386 0.000000 -0.000000 0.000000 8.023766 1.859618 6.878819 2.451318 10.829882 12.521859 -4.221165 -2.765459 -12.815230 0.000000 -0.000000 0.000000 -2.947910 7.347077 11.279186 1.147069 -5.293232 4.588421 -0.519024 -1.200941 4.568113 1.817482 -0.103568 -0.179378 7.307044 -3.451771 -4.885796 -22.793633 -4.445118 5.683750 -56.300952 -5.364460 10.495476 12.198300 -32.904068 7.930485 5.215004 -4.970749 -9.556285 19.645883 2.085247 3.596458 61.355605 -2.558978 11.288437 -18.052544 39.515269 3.387360 1.112266 5.735705 -13.851634 
0.917783 -0.428894 0.994017 -112.022799 -1.097774 81.922736 2.855751 -9.560857 -21.760871 -2.940404 -4.901690 38.127261 3.308195 11.543720 -9.808106 0.000000 -0.000000 0.000000 7.845644 1.861535 7.473369 2.578986 11.958915 13.476468 -4.028148 -2.670863 -14.170124 0.000000 -0.000000 0.000000 -2.888175 7.279803 11.149887 1.084962 -5.330592 4.374523 -0.529389 -1.033335 4.820425 1.674598 0.501355 -0.325926 7.058407 -3.861535 -4.523308 -22.652945 -4.271620 5.620763 -56.461378 -5.015607 10.846845 12.255503 -32.672249 8.196489 5.309555 -4.733245 -9.675324 19.622466 2.178267 3.515537 61.182063 -2.485124 11.465177 -18.078951 39.821580 3.440313 1.277915 5.703531 -13.643353 
0.898963 -0.423511 0.991924 -113.625704 -0.918542 82.363778 3.258237 -9.742404 -22.186585 -2.948730 -8.312904 29.870249 2.673618 9.897204 -9.270660 0.000000 -0.000000 0.000000 7.821121 1.823569 8.190848 2.883585 12.919843 14.186801 -3.842357 -2.466284 -15.084407 0.000000 -0.000000 0.000000 -2.653814 7.232907 10.940199 1.147769 -5.405914 4.276036 -0.506815 -1.015992 4.861847 1.678497 1.204553 -0.423029 6.788230 -4.323868 -4.199585 -22.658100 -4.058097 5.792132 -56.587036 -4.638045 11.029534 12.564921 -32.525004 8.382230 4.683003 -4.691202 -9.933978 19.624829 2.224952 3.579387 60.910312 -2.374957 11.567250 -17.973941 40.018769 3.823569 1.454318 5.995197 -13.572870 
0.877272 -0.418025 0.989608 -115.991915 -1.392740 82.815344 2.993976 -9.439409 -21.651268 -2.608111 -11.121308 21.413759 2.675899 8.297632 -8.722397 0.000000 -0.000000 0.000000 6.663261 1.656588 9.133689 3.370158 14.067788 14.695247 -3.610480 -1.464169 -16.105893 0.000000 -0.000000 0.000000 -2.983329 7.353579 9.987127 0.971048 -5.084406 5.054880 -0.471654 -0.619336 4.627980 1.741927 1.607507 -0.102497 6.705557 -4.764606 -4.280570 -22.769145 -3.833243 5.700998 -56.655985 -4.139202 11.336078 12.597995 -32.052994 8.322375 4.757217 -4.559015 -9.799338 19.690805 2.345512 3.913296 60.710084 -2.301494 11.480484 -18.062606 40.409018 3.765908 1.579823 6.085680 -13.144896 
0.855928 -0.411385 0.986689 -117.811199 -1.617881 83.351629 3.380445 -8.857462 -21.681077 -3.398813 -13.083512 15.158515 2.110007 5.952145 -8.438240 0.000000 -0.000000 0.000000 5.832589 1.160102 9.963178 3.644752 14.910272 15.223167 -3.507274 -0.519634 -16.922057 0.000000 -0.000000 0.000000 -3.236738 7.542922 9.466228 0.944726 -5.074060 5.314057 -0.400250 -0.489486 4.339812 1.910666 2.195625 0.181361 6.570212 -5.015479 -4.354859 -22.841877 -3.474247 5.584172 -56.627380 -3.544748 11.511729 12.449652 -31.787897 8.691056 4.715106 -4.616842 -9.781471 19.797529 2.226361 4.163446 60.514551 -2.193211 11.491671 -17.943269 40.698560 4.036514 1.726856 6.142568 -13.098106 
0.833762 -0.404270 0.983782 -119.473982 -1.554718 83.744508 3.795627 -7.711787 -21.778737 -4.375849 -14.572009 11.488346 1.327592 3.921379 -8.436191 0.000000 -0.000000 0.000000 5.246026 0.730347 10.976818 3.903827 15.825403 15.756717 -3.299194 0.301533 -17.420315 0.000000 -0.000000 0.000000 -3.220406 7.523661 9.085982 1.009642 -5.072226 5.402530 -0.392156 -0.300123 4.323619 2.089662 2.512241 0.151710 6.349361 -5.159941 -4.238981 -22.987997 -3.242033 5.441507 -56.563022 -3.061983 11.429820 12.315872 -31.298683 9.002204 4.544719 -4.555331 -9.726131 19.849737 2.083653 4.190563 60.442302 -2.059873 11.339284 -17.801890 40.855155 4.336568 2.014787 6.319567 -13.064577 
0.810455 -0.396980 0.981182 -121.203083 -1.632841 84.066357 3.439870 -7.567450 -21.138757 -3.898948 -15.005935 9.244274 1.280323 4.276347 -8.146322 0.000000 -0.000000 0.000000 4.466558 0.931037 12.060474 4.177357 16.510384 16.409030 -2.941607 1.119128 -17.322801 0.000000 -0.000000 0.000000 -3.319522 7.406579 8.799201 1.035902 -4.978390 5.434074 -0.388612 -0.098834 4.245347 2.177866 2.644907 0.402902 6.108467 -4.919948 -4.114273 -23.019412 -2.915465 5.206308 -56.618827 -2.546963 11.490942 12.094584 -30.658976 9.185007 4.463455 -4.389887 -9.471488 19.837729 1.843533 3.976811 60.364289 -2.023104 11.480158 -17.353802 40.893333 4.761813 1.963445 6.178755 -12.730536 
0.786418 -0.388086 0.979076 -122.919244 -1.380830 84.960551 3.392780 -7.675006 -21.034668 -3.608505 -13.990302 9.637158 1.757264 5.653734 -8.368787 0.000000 -0.000000 0.000000 4.301530 1.322750 12.327220 4.423108 17.180771 17.623644 -2.603106 1.407017 -17.038736 0.000000 -0.000000 0.000000 -3.467709 7.402342 7.524535 1.245264 -4.929421 5.638106 -0.404734 0.027437 4.203566 2.284579 2.689775 0.899477 6.139149 -4.822091 -4.428198 -22.827937 -2.444846 5.086919 -56.805249 -2.107889 11.687992 11.973358 -30.019567 9.668263 4.033943 -4.193336 -9.634383 19.884491 1.516775 4.059537 60.439920 -1.819107 11.756166 -17.384787 40.719321 4.852710 2.229133 6.084097 -12.883581 
0.760865 -0.378087 0.976592 -124.622667 -1.403433 85.817777 2.759415 -8.287877 -20.468846 -3.281754 -13.125154 11.055018 2.264588 6.245753 -7.928279 0.000000 -0.000000 0.000000 3.872395 1.901374 12.343334 4.692180 17.313745 19.605908 -2.036860 1.776949 -16.266283 0.000000 -0.000000 0.000000 -3.971315 7.384966 6.357404 1.453227 -4.723122 5.653707 -0.448873 0.167702 4.169195 2.552751 2.518335 1.145277 6.231294 -4.924487 -4.439428 -22.667291 -1.817526 4.950052 -56.858317 -1.791210 11.818570 11.871677 -29.361459 9.844493 3.376061 -4.091447 -9.122957 20.207021 0.954952 3.973811 60.510108 -1.906957 12.071808 -17.930767 40.637036 4.352841 2.732436 6.127283 -12.596339 
0.733888 -0.367581 0.975594 -125.553355 -1.492324 86.729499 1.823105 -9.083203 -20.121205 -3.027154 -13.846337 11.833244 2.864041 5.683845 -5.781278 0.000000 -0.000000 0.000000 3.519008 2.362995 12.175604 5.086894 17.247243 21.809796 -1.365975 1.550211 -14.524515 0.000000 -0.000000 0.000000 -4.657962 7.009785 4.882525 1.786485 -4.785704 5.814796 -0.492493 0.064693 4.073464 3.016198 1.958380 1.405592 6.247385 -4.645297 -4.353228 -23.057989 -1.194628 5.109561 -56.326268 -1.593708 12.033373 11.668373 -28.661006 9.846560 3.473490 -4.184529 -8.744119 20.669685 0.299275 3.792500 60.311136 -2.080947 12.519908 -18.274866 40.413004 3.952494 2.968520 6.182167 -12.480772 
0.707134 -0.355726 0.977593 -126.036033 -1.803700 87.001648 1.269619 -10.003425 -19.690795 -3.636590 -13.029574 14.041063 3.755141 6.363256 -5.940132 0.000000 -0.000000 0.000000 3.054477 2.612382 12.163384 5.760019 16.696851 24.859919 -0.006970 1.374796 -11.288649 0.000000 -0.000000 0.000000 -5.572776 6.916362 4.142072 1.949026 -5.139795 5.845260 -0.475629 -0.383933 4.158973 3.602115 1.474051 1.537356 6.441861 -4.475504 -4.278296 -22.948527 -0.978408 5.460023 -55.953686 -1.558974 11.830196 11.564064 -27.933294 9.877302 3.484740 -4.193368 -8.387538 20.911895 -0.136745 3.482466 60.849670 -2.260234 12.855284 -18.790731 39.573614 3.522703 3.248469 6.077501 -12.174226 
0.681013 -0.343827 0.981703 -126.284389 -2.202387 87.004264 0.568453 -10.396859 -18.208543 -4.597288 -12.593890 15.215099 3.833626 7.053311 -6.852497 0.000000 -0.000000 0.000000 2.153623 2.675510 11.579159 6.840342 15.251895 28.884981 1.552541 2.206970 -6.683018 0.000000 -0.000000 0.000000 -6.299488 6.802416 3.662045 1.959155 -5.380673 6.177482 -0.560576 -0.744609 4.194813 4.036114 0.835829 1.752894 6.703005 -4.558455 -4.491486 -22.508296 -1.362249 5.736921 -55.841368 -1.756874 11.635385 11.679141 -27.143176 9.468798 3.298844 -4.120739 -8.101567 20.737637 -0.501462 3.369028 62.124282 -2.493252 12.763217 -19.775927 38.831405 2.500611 3.716511 5.972250 -12.377856 
